<svg width="1412" height="720" viewBox="0 0 1412 720" fill="none" xmlns="http://www.w3.org/2000/svg">
<g opacity="0.5" clip-path="url(#clip0_63_626)">
<circle cx="1.5" cy="1.5" r="1.5" fill="white" fill-opacity="0.7"/>
<circle cx="64.5" cy="1.5" r="1.5" fill="white" fill-opacity="0.7"/>
<circle cx="127.5" cy="1.5" r="1.5" fill="white" fill-opacity="0.7"/>
<circle cx="190.5" cy="1.5" r="1.5" fill="white" fill-opacity="0.7"/>
<circle cx="253.5" cy="1.5" r="1.5" fill="white" fill-opacity="0.7"/>
<circle cx="316.5" cy="1.5" r="1.5" fill="white" fill-opacity="0.7"/>
<circle cx="379.5" cy="1.5" r="1.5" fill="white" fill-opacity="0.7"/>
<circle cx="442.5" cy="1.5" r="1.5" fill="white" fill-opacity="0.7"/>
<circle cx="505.5" cy="1.5" r="1.5" fill="white" fill-opacity="0.7"/>
<circle cx="568.5" cy="1.5" r="1.5" fill="white" fill-opacity="0.7"/>
<circle cx="631.5" cy="1.5" r="1.5" fill="white" fill-opacity="0.7"/>
<circle cx="694.5" cy="1.5" r="1.5" fill="white" fill-opacity="0.7"/>
<circle cx="757.5" cy="1.5" r="1.5" fill="white" fill-opacity="0.7"/>
<circle cx="820.5" cy="1.5" r="1.5" fill="white" fill-opacity="0.7"/>
<circle cx="883.5" cy="1.5" r="1.5" fill="white" fill-opacity="0.7"/>
<circle cx="946.5" cy="1.5" r="1.5" fill="white" fill-opacity="0.7"/>
<circle cx="1009.5" cy="1.5" r="1.5" fill="white" fill-opacity="0.7"/>
<circle cx="1072.5" cy="1.5" r="1.5" fill="white" fill-opacity="0.7"/>
<circle cx="1135.5" cy="1.5" r="1.5" fill="white" fill-opacity="0.7"/>
<circle cx="1198.5" cy="1.5" r="1.5" fill="white" fill-opacity="0.7"/>
<circle cx="1261.5" cy="1.5" r="1.5" fill="white" fill-opacity="0.7"/>
<circle cx="1324.5" cy="1.5" r="1.5" fill="white" fill-opacity="0.7"/>
<circle cx="1387.5" cy="1.5" r="1.5" fill="white" fill-opacity="0.7"/>
<circle cx="1.5" cy="64.5" r="1.5" fill="white" fill-opacity="0.7"/>
<circle cx="64.5" cy="64.5" r="1.5" fill="white" fill-opacity="0.7"/>
<circle cx="127.5" cy="64.5" r="1.5" fill="white" fill-opacity="0.7"/>
<circle cx="190.5" cy="64.5" r="1.5" fill="white" fill-opacity="0.7"/>
<circle cx="253.5" cy="64.5" r="1.5" fill="white" fill-opacity="0.7"/>
<circle cx="316.5" cy="64.5" r="1.5" fill="white" fill-opacity="0.7"/>
<circle cx="379.5" cy="64.5" r="1.5" fill="white" fill-opacity="0.7"/>
<circle cx="442.5" cy="64.5" r="1.5" fill="white" fill-opacity="0.7"/>
<circle cx="505.5" cy="64.5" r="1.5" fill="white" fill-opacity="0.7"/>
<circle cx="568.5" cy="64.5" r="1.5" fill="white" fill-opacity="0.7"/>
<circle cx="631.5" cy="64.5" r="1.5" fill="white" fill-opacity="0.7"/>
<circle cx="694.5" cy="64.5" r="1.5" fill="white" fill-opacity="0.7"/>
<circle cx="757.5" cy="64.5" r="1.5" fill="white" fill-opacity="0.7"/>
<circle cx="820.5" cy="64.5" r="1.5" fill="white" fill-opacity="0.7"/>
<circle cx="883.5" cy="64.5" r="1.5" fill="white" fill-opacity="0.7"/>
<circle cx="946.5" cy="64.5" r="1.5" fill="white" fill-opacity="0.7"/>
<circle cx="1009.5" cy="64.5" r="1.5" fill="white" fill-opacity="0.7"/>
<circle cx="1072.5" cy="64.5" r="1.5" fill="white" fill-opacity="0.7"/>
<circle cx="1135.5" cy="64.5" r="1.5" fill="white" fill-opacity="0.7"/>
<circle cx="1198.5" cy="64.5" r="1.5" fill="white" fill-opacity="0.7"/>
<circle cx="1261.5" cy="64.5" r="1.5" fill="white" fill-opacity="0.7"/>
<circle cx="1324.5" cy="64.5" r="1.5" fill="white" fill-opacity="0.7"/>
<circle cx="1387.5" cy="64.5" r="1.5" fill="white" fill-opacity="0.7"/>
<circle cx="1.5" cy="127.5" r="1.5" fill="white" fill-opacity="0.7"/>
<circle cx="64.5" cy="127.5" r="1.5" fill="white" fill-opacity="0.7"/>
<circle cx="127.5" cy="127.5" r="1.5" fill="white" fill-opacity="0.7"/>
<circle cx="190.5" cy="127.5" r="1.5" fill="white" fill-opacity="0.7"/>
<circle cx="253.5" cy="127.5" r="1.5" fill="white" fill-opacity="0.7"/>
<circle cx="316.5" cy="127.5" r="1.5" fill="white" fill-opacity="0.7"/>
<circle cx="379.5" cy="127.5" r="1.5" fill="white" fill-opacity="0.7"/>
<circle cx="442.5" cy="127.5" r="1.5" fill="white" fill-opacity="0.7"/>
<circle cx="505.5" cy="127.5" r="1.5" fill="white" fill-opacity="0.7"/>
<circle cx="568.5" cy="127.5" r="1.5" fill="white" fill-opacity="0.7"/>
<circle cx="631.5" cy="127.5" r="1.5" fill="white" fill-opacity="0.7"/>
<circle cx="694.5" cy="127.5" r="1.5" fill="white" fill-opacity="0.7"/>
<circle cx="757.5" cy="127.5" r="1.5" fill="white" fill-opacity="0.7"/>
<circle cx="820.5" cy="127.5" r="1.5" fill="white" fill-opacity="0.7"/>
<circle cx="883.5" cy="127.5" r="1.5" fill="white" fill-opacity="0.7"/>
<circle cx="946.5" cy="127.5" r="1.5" fill="white" fill-opacity="0.7"/>
<circle cx="1009.5" cy="127.5" r="1.5" fill="white" fill-opacity="0.7"/>
<circle cx="1072.5" cy="127.5" r="1.5" fill="white" fill-opacity="0.7"/>
<circle cx="1135.5" cy="127.5" r="1.5" fill="white" fill-opacity="0.7"/>
<circle cx="1198.5" cy="127.5" r="1.5" fill="white" fill-opacity="0.7"/>
<circle cx="1261.5" cy="127.5" r="1.5" fill="white" fill-opacity="0.7"/>
<circle cx="1324.5" cy="127.5" r="1.5" fill="white" fill-opacity="0.7"/>
<circle cx="1387.5" cy="127.5" r="1.5" fill="white" fill-opacity="0.7"/>
<circle cx="1.5" cy="190.5" r="1.5" fill="white" fill-opacity="0.7"/>
<circle cx="64.5" cy="190.5" r="1.5" fill="white" fill-opacity="0.7"/>
<circle cx="127.5" cy="190.5" r="1.5" fill="white" fill-opacity="0.7"/>
<circle cx="190.5" cy="190.5" r="1.5" fill="white" fill-opacity="0.7"/>
<circle cx="253.5" cy="190.5" r="1.5" fill="white" fill-opacity="0.7"/>
<circle cx="316.5" cy="190.5" r="1.5" fill="white" fill-opacity="0.7"/>
<circle cx="379.5" cy="190.5" r="1.5" fill="white" fill-opacity="0.7"/>
<circle cx="442.5" cy="190.5" r="1.5" fill="white" fill-opacity="0.7"/>
<circle cx="505.5" cy="190.5" r="1.5" fill="white" fill-opacity="0.7"/>
<circle cx="568.5" cy="190.5" r="1.5" fill="white" fill-opacity="0.7"/>
<circle cx="631.5" cy="190.5" r="1.5" fill="white" fill-opacity="0.7"/>
<circle cx="694.5" cy="190.5" r="1.5" fill="white" fill-opacity="0.7"/>
<circle cx="757.5" cy="190.5" r="1.5" fill="white" fill-opacity="0.7"/>
<circle cx="820.5" cy="190.5" r="1.5" fill="white" fill-opacity="0.7"/>
<circle cx="883.5" cy="190.5" r="1.5" fill="white" fill-opacity="0.7"/>
<circle cx="946.5" cy="190.5" r="1.5" fill="white" fill-opacity="0.7"/>
<circle cx="1009.5" cy="190.5" r="1.5" fill="white" fill-opacity="0.7"/>
<circle cx="1072.5" cy="190.5" r="1.5" fill="white" fill-opacity="0.7"/>
<circle cx="1135.5" cy="190.5" r="1.5" fill="white" fill-opacity="0.7"/>
<circle cx="1198.5" cy="190.5" r="1.5" fill="white" fill-opacity="0.7"/>
<circle cx="1261.5" cy="190.5" r="1.5" fill="white" fill-opacity="0.7"/>
<circle cx="1324.5" cy="190.5" r="1.5" fill="white" fill-opacity="0.7"/>
<circle cx="1387.5" cy="190.5" r="1.5" fill="white" fill-opacity="0.7"/>
<circle cx="1.5" cy="253.5" r="1.5" fill="white" fill-opacity="0.7"/>
<circle cx="64.5" cy="253.5" r="1.5" fill="white" fill-opacity="0.7"/>
<circle cx="127.5" cy="253.5" r="1.5" fill="white" fill-opacity="0.7"/>
<circle cx="190.5" cy="253.5" r="1.5" fill="white" fill-opacity="0.7"/>
<circle cx="253.5" cy="253.5" r="1.5" fill="white" fill-opacity="0.7"/>
<circle cx="316.5" cy="253.5" r="1.5" fill="white" fill-opacity="0.7"/>
<circle cx="379.5" cy="253.5" r="1.5" fill="white" fill-opacity="0.7"/>
<circle cx="442.5" cy="253.5" r="1.5" fill="white" fill-opacity="0.7"/>
<circle cx="505.5" cy="253.5" r="1.5" fill="white" fill-opacity="0.7"/>
<circle cx="568.5" cy="253.5" r="1.5" fill="white" fill-opacity="0.7"/>
<circle cx="631.5" cy="253.5" r="1.5" fill="white" fill-opacity="0.7"/>
<circle cx="694.5" cy="253.5" r="1.5" fill="white" fill-opacity="0.7"/>
<circle cx="757.5" cy="253.5" r="1.5" fill="white" fill-opacity="0.7"/>
<circle cx="820.5" cy="253.5" r="1.5" fill="white" fill-opacity="0.7"/>
<circle cx="883.5" cy="253.5" r="1.5" fill="white" fill-opacity="0.7"/>
<circle cx="946.5" cy="253.5" r="1.5" fill="white" fill-opacity="0.7"/>
<circle cx="1009.5" cy="253.5" r="1.5" fill="white" fill-opacity="0.7"/>
<circle cx="1072.5" cy="253.5" r="1.5" fill="white" fill-opacity="0.7"/>
<circle cx="1135.5" cy="253.5" r="1.5" fill="white" fill-opacity="0.7"/>
<circle cx="1198.5" cy="253.5" r="1.5" fill="white" fill-opacity="0.7"/>
<circle cx="1261.5" cy="253.5" r="1.5" fill="white" fill-opacity="0.7"/>
<circle cx="1324.5" cy="253.5" r="1.5" fill="white" fill-opacity="0.7"/>
<circle cx="1387.5" cy="253.5" r="1.5" fill="white" fill-opacity="0.7"/>
<circle cx="1.5" cy="316.5" r="1.5" fill="white" fill-opacity="0.7"/>
<circle cx="64.5" cy="316.5" r="1.5" fill="white" fill-opacity="0.7"/>
<circle cx="127.5" cy="316.5" r="1.5" fill="white" fill-opacity="0.7"/>
<circle cx="190.5" cy="316.5" r="1.5" fill="white" fill-opacity="0.7"/>
<circle cx="253.5" cy="316.5" r="1.5" fill="white" fill-opacity="0.7"/>
<circle cx="316.5" cy="316.5" r="1.5" fill="white" fill-opacity="0.7"/>
<circle cx="379.5" cy="316.5" r="1.5" fill="white" fill-opacity="0.7"/>
<circle cx="442.5" cy="316.5" r="1.5" fill="white" fill-opacity="0.7"/>
<circle cx="505.5" cy="316.5" r="1.5" fill="white" fill-opacity="0.7"/>
<circle cx="568.5" cy="316.5" r="1.5" fill="white" fill-opacity="0.7"/>
<circle cx="631.5" cy="316.5" r="1.5" fill="white" fill-opacity="0.7"/>
<circle cx="694.5" cy="316.5" r="1.5" fill="white" fill-opacity="0.7"/>
<circle cx="757.5" cy="316.5" r="1.5" fill="white" fill-opacity="0.7"/>
<circle cx="820.5" cy="316.5" r="1.5" fill="white" fill-opacity="0.7"/>
<circle cx="883.5" cy="316.5" r="1.5" fill="white" fill-opacity="0.7"/>
<circle cx="946.5" cy="316.5" r="1.5" fill="white" fill-opacity="0.7"/>
<circle cx="1009.5" cy="316.5" r="1.5" fill="white" fill-opacity="0.7"/>
<circle cx="1072.5" cy="316.5" r="1.5" fill="white" fill-opacity="0.7"/>
<circle cx="1135.5" cy="316.5" r="1.5" fill="white" fill-opacity="0.7"/>
<circle cx="1198.5" cy="316.5" r="1.5" fill="white" fill-opacity="0.7"/>
<circle cx="1261.5" cy="316.5" r="1.5" fill="white" fill-opacity="0.7"/>
<circle cx="1324.5" cy="316.5" r="1.5" fill="white" fill-opacity="0.7"/>
<circle cx="1387.5" cy="316.5" r="1.5" fill="white" fill-opacity="0.7"/>
<circle cx="1.5" cy="379.5" r="1.5" fill="white" fill-opacity="0.7"/>
<circle cx="64.5" cy="379.5" r="1.5" fill="white" fill-opacity="0.7"/>
<circle cx="127.5" cy="379.5" r="1.5" fill="white" fill-opacity="0.7"/>
<circle cx="190.5" cy="379.5" r="1.5" fill="white" fill-opacity="0.7"/>
<circle cx="253.5" cy="379.5" r="1.5" fill="white" fill-opacity="0.7"/>
<circle cx="316.5" cy="379.5" r="1.5" fill="white" fill-opacity="0.7"/>
<circle cx="379.5" cy="379.5" r="1.5" fill="white" fill-opacity="0.7"/>
<circle cx="442.5" cy="379.5" r="1.5" fill="white" fill-opacity="0.7"/>
<circle cx="505.5" cy="379.5" r="1.5" fill="white" fill-opacity="0.7"/>
<circle cx="568.5" cy="379.5" r="1.5" fill="white" fill-opacity="0.7"/>
<circle cx="631.5" cy="379.5" r="1.5" fill="white" fill-opacity="0.7"/>
<circle cx="694.5" cy="379.5" r="1.5" fill="white" fill-opacity="0.7"/>
<circle cx="757.5" cy="379.5" r="1.5" fill="white" fill-opacity="0.7"/>
<circle cx="820.5" cy="379.5" r="1.5" fill="white" fill-opacity="0.7"/>
<circle cx="883.5" cy="379.5" r="1.5" fill="white" fill-opacity="0.7"/>
<circle cx="946.5" cy="379.5" r="1.5" fill="white" fill-opacity="0.7"/>
<circle cx="1009.5" cy="379.5" r="1.5" fill="white" fill-opacity="0.7"/>
<circle cx="1072.5" cy="379.5" r="1.5" fill="white" fill-opacity="0.7"/>
<circle cx="1135.5" cy="379.5" r="1.5" fill="white" fill-opacity="0.7"/>
<circle cx="1198.5" cy="379.5" r="1.5" fill="white" fill-opacity="0.7"/>
<circle cx="1261.5" cy="379.5" r="1.5" fill="white" fill-opacity="0.7"/>
<circle cx="1324.5" cy="379.5" r="1.5" fill="white" fill-opacity="0.7"/>
<circle cx="1387.5" cy="379.5" r="1.5" fill="white" fill-opacity="0.7"/>
<circle cx="1.5" cy="442.5" r="1.5" fill="white" fill-opacity="0.7"/>
<circle cx="64.5" cy="442.5" r="1.5" fill="white" fill-opacity="0.7"/>
<circle cx="127.5" cy="442.5" r="1.5" fill="white" fill-opacity="0.7"/>
<circle cx="190.5" cy="442.5" r="1.5" fill="white" fill-opacity="0.7"/>
<circle cx="253.5" cy="442.5" r="1.5" fill="white" fill-opacity="0.7"/>
<circle cx="316.5" cy="442.5" r="1.5" fill="white" fill-opacity="0.7"/>
<circle cx="379.5" cy="442.5" r="1.5" fill="white" fill-opacity="0.7"/>
<circle cx="442.5" cy="442.5" r="1.5" fill="white" fill-opacity="0.7"/>
<circle cx="505.5" cy="442.5" r="1.5" fill="white" fill-opacity="0.7"/>
<circle cx="568.5" cy="442.5" r="1.5" fill="white" fill-opacity="0.7"/>
<circle cx="631.5" cy="442.5" r="1.5" fill="white" fill-opacity="0.7"/>
<circle cx="694.5" cy="442.5" r="1.5" fill="white" fill-opacity="0.7"/>
<circle cx="757.5" cy="442.5" r="1.5" fill="white" fill-opacity="0.7"/>
<circle cx="820.5" cy="442.5" r="1.5" fill="white" fill-opacity="0.7"/>
<circle cx="883.5" cy="442.5" r="1.5" fill="white" fill-opacity="0.7"/>
<circle cx="946.5" cy="442.5" r="1.5" fill="white" fill-opacity="0.7"/>
<circle cx="1009.5" cy="442.5" r="1.5" fill="white" fill-opacity="0.7"/>
<circle cx="1072.5" cy="442.5" r="1.5" fill="white" fill-opacity="0.7"/>
<circle cx="1135.5" cy="442.5" r="1.5" fill="white" fill-opacity="0.7"/>
<circle cx="1198.5" cy="442.5" r="1.5" fill="white" fill-opacity="0.7"/>
<circle cx="1261.5" cy="442.5" r="1.5" fill="white" fill-opacity="0.7"/>
<circle cx="1324.5" cy="442.5" r="1.5" fill="white" fill-opacity="0.7"/>
<circle cx="1387.5" cy="442.5" r="1.5" fill="white" fill-opacity="0.7"/>
<circle cx="1.5" cy="505.5" r="1.5" fill="white" fill-opacity="0.7"/>
<circle cx="64.5" cy="505.5" r="1.5" fill="white" fill-opacity="0.7"/>
<circle cx="127.5" cy="505.5" r="1.5" fill="white" fill-opacity="0.7"/>
<circle cx="190.5" cy="505.5" r="1.5" fill="white" fill-opacity="0.7"/>
<circle cx="253.5" cy="505.5" r="1.5" fill="white" fill-opacity="0.7"/>
<circle cx="316.5" cy="505.5" r="1.5" fill="white" fill-opacity="0.7"/>
<circle cx="379.5" cy="505.5" r="1.5" fill="white" fill-opacity="0.7"/>
<circle cx="442.5" cy="505.5" r="1.5" fill="white" fill-opacity="0.7"/>
<circle cx="505.5" cy="505.5" r="1.5" fill="white" fill-opacity="0.7"/>
<circle cx="568.5" cy="505.5" r="1.5" fill="white" fill-opacity="0.7"/>
<circle cx="631.5" cy="505.5" r="1.5" fill="white" fill-opacity="0.7"/>
<circle cx="694.5" cy="505.5" r="1.5" fill="white" fill-opacity="0.7"/>
<circle cx="757.5" cy="505.5" r="1.5" fill="white" fill-opacity="0.7"/>
<circle cx="820.5" cy="505.5" r="1.5" fill="white" fill-opacity="0.7"/>
<circle cx="883.5" cy="505.5" r="1.5" fill="white" fill-opacity="0.7"/>
<circle cx="946.5" cy="505.5" r="1.5" fill="white" fill-opacity="0.7"/>
<circle cx="1009.5" cy="505.5" r="1.5" fill="white" fill-opacity="0.7"/>
<circle cx="1072.5" cy="505.5" r="1.5" fill="white" fill-opacity="0.7"/>
<circle cx="1135.5" cy="505.5" r="1.5" fill="white" fill-opacity="0.7"/>
<circle cx="1198.5" cy="505.5" r="1.5" fill="white" fill-opacity="0.7"/>
<circle cx="1261.5" cy="505.5" r="1.5" fill="white" fill-opacity="0.7"/>
<circle cx="1324.5" cy="505.5" r="1.5" fill="white" fill-opacity="0.7"/>
<circle cx="1387.5" cy="505.5" r="1.5" fill="white" fill-opacity="0.7"/>
<circle cx="1.5" cy="568.5" r="1.5" fill="white" fill-opacity="0.7"/>
<circle cx="64.5" cy="568.5" r="1.5" fill="white" fill-opacity="0.7"/>
<circle cx="127.5" cy="568.5" r="1.5" fill="white" fill-opacity="0.7"/>
<circle cx="190.5" cy="568.5" r="1.5" fill="white" fill-opacity="0.7"/>
<circle cx="253.5" cy="568.5" r="1.5" fill="white" fill-opacity="0.7"/>
<circle cx="316.5" cy="568.5" r="1.5" fill="white" fill-opacity="0.7"/>
<circle cx="379.5" cy="568.5" r="1.5" fill="white" fill-opacity="0.7"/>
<circle cx="442.5" cy="568.5" r="1.5" fill="white" fill-opacity="0.7"/>
<circle cx="505.5" cy="568.5" r="1.5" fill="white" fill-opacity="0.7"/>
<circle cx="568.5" cy="568.5" r="1.5" fill="white" fill-opacity="0.7"/>
<circle cx="631.5" cy="568.5" r="1.5" fill="white" fill-opacity="0.7"/>
<circle cx="694.5" cy="568.5" r="1.5" fill="white" fill-opacity="0.7"/>
<circle cx="757.5" cy="568.5" r="1.5" fill="white" fill-opacity="0.7"/>
<circle cx="820.5" cy="568.5" r="1.5" fill="white" fill-opacity="0.7"/>
<circle cx="883.5" cy="568.5" r="1.5" fill="white" fill-opacity="0.7"/>
<circle cx="946.5" cy="568.5" r="1.5" fill="white" fill-opacity="0.7"/>
<circle cx="1009.5" cy="568.5" r="1.5" fill="white" fill-opacity="0.7"/>
<circle cx="1072.5" cy="568.5" r="1.5" fill="white" fill-opacity="0.7"/>
<circle cx="1135.5" cy="568.5" r="1.5" fill="white" fill-opacity="0.7"/>
<circle cx="1198.5" cy="568.5" r="1.5" fill="white" fill-opacity="0.7"/>
<circle cx="1261.5" cy="568.5" r="1.5" fill="white" fill-opacity="0.7"/>
<circle cx="1324.5" cy="568.5" r="1.5" fill="white" fill-opacity="0.7"/>
<circle cx="1387.5" cy="568.5" r="1.5" fill="white" fill-opacity="0.7"/>
<circle cx="1.5" cy="631.5" r="1.5" fill="white" fill-opacity="0.7"/>
<circle cx="64.5" cy="631.5" r="1.5" fill="white" fill-opacity="0.7"/>
<circle cx="127.5" cy="631.5" r="1.5" fill="white" fill-opacity="0.7"/>
<circle cx="190.5" cy="631.5" r="1.5" fill="white" fill-opacity="0.7"/>
<circle cx="253.5" cy="631.5" r="1.5" fill="white" fill-opacity="0.7"/>
<circle cx="316.5" cy="631.5" r="1.5" fill="white" fill-opacity="0.7"/>
<circle cx="379.5" cy="631.5" r="1.5" fill="white" fill-opacity="0.7"/>
<circle cx="442.5" cy="631.5" r="1.5" fill="white" fill-opacity="0.7"/>
<circle cx="505.5" cy="631.5" r="1.5" fill="white" fill-opacity="0.7"/>
<circle cx="568.5" cy="631.5" r="1.5" fill="white" fill-opacity="0.7"/>
<circle cx="631.5" cy="631.5" r="1.5" fill="white" fill-opacity="0.7"/>
<circle cx="694.5" cy="631.5" r="1.5" fill="white" fill-opacity="0.7"/>
<circle cx="757.5" cy="631.5" r="1.5" fill="white" fill-opacity="0.7"/>
<circle cx="820.5" cy="631.5" r="1.5" fill="white" fill-opacity="0.7"/>
<circle cx="883.5" cy="631.5" r="1.5" fill="white" fill-opacity="0.7"/>
<circle cx="946.5" cy="631.5" r="1.5" fill="white" fill-opacity="0.7"/>
<circle cx="1009.5" cy="631.5" r="1.5" fill="white" fill-opacity="0.7"/>
<circle cx="1072.5" cy="631.5" r="1.5" fill="white" fill-opacity="0.7"/>
<circle cx="1135.5" cy="631.5" r="1.5" fill="white" fill-opacity="0.7"/>
<circle cx="1198.5" cy="631.5" r="1.5" fill="white" fill-opacity="0.7"/>
<circle cx="1261.5" cy="631.5" r="1.5" fill="white" fill-opacity="0.7"/>
<circle cx="1324.5" cy="631.5" r="1.5" fill="white" fill-opacity="0.7"/>
<circle cx="1387.5" cy="631.5" r="1.5" fill="white" fill-opacity="0.7"/>
<circle cx="1.5" cy="694.5" r="1.5" fill="white" fill-opacity="0.7"/>
<circle cx="64.5" cy="694.5" r="1.5" fill="white" fill-opacity="0.7"/>
<circle cx="127.5" cy="694.5" r="1.5" fill="white" fill-opacity="0.7"/>
<circle cx="190.5" cy="694.5" r="1.5" fill="white" fill-opacity="0.7"/>
<circle cx="253.5" cy="694.5" r="1.5" fill="white" fill-opacity="0.7"/>
<circle cx="316.5" cy="694.5" r="1.5" fill="white" fill-opacity="0.7"/>
<circle cx="379.5" cy="694.5" r="1.5" fill="white" fill-opacity="0.7"/>
<circle cx="442.5" cy="694.5" r="1.5" fill="white" fill-opacity="0.7"/>
<circle cx="505.5" cy="694.5" r="1.5" fill="white" fill-opacity="0.7"/>
<circle cx="568.5" cy="694.5" r="1.5" fill="white" fill-opacity="0.7"/>
<circle cx="631.5" cy="694.5" r="1.5" fill="white" fill-opacity="0.7"/>
<circle cx="694.5" cy="694.5" r="1.5" fill="white" fill-opacity="0.7"/>
<circle cx="757.5" cy="694.5" r="1.5" fill="white" fill-opacity="0.7"/>
<circle cx="820.5" cy="694.5" r="1.5" fill="white" fill-opacity="0.7"/>
<circle cx="883.5" cy="694.5" r="1.5" fill="white" fill-opacity="0.7"/>
<circle cx="946.5" cy="694.5" r="1.5" fill="white" fill-opacity="0.7"/>
<circle cx="1009.5" cy="694.5" r="1.5" fill="white" fill-opacity="0.7"/>
<circle cx="1072.5" cy="694.5" r="1.5" fill="white" fill-opacity="0.7"/>
<circle cx="1135.5" cy="694.5" r="1.5" fill="white" fill-opacity="0.7"/>
<circle cx="1198.5" cy="694.5" r="1.5" fill="white" fill-opacity="0.7"/>
<circle cx="1261.5" cy="694.5" r="1.5" fill="white" fill-opacity="0.7"/>
<circle cx="1324.5" cy="694.5" r="1.5" fill="white" fill-opacity="0.7"/>
<circle cx="1387.5" cy="694.5" r="1.5" fill="white" fill-opacity="0.7"/>
</g>
<defs>
<clipPath id="clip0_63_626">
<rect width="1412" height="720" fill="white"/>
</clipPath>
</defs>
</svg>
