<svg width="201" height="182" viewBox="0 0 201 182" fill="none" xmlns="http://www.w3.org/2000/svg">
<path d="M152.811 62.4056C152.882 62.4053 152.954 62.4051 153.025 62.4051C176.759 62.4051 196 81.681 196 105.459C196 127.62 179.287 145.87 157.8 148.25M152.811 62.4056C152.953 60.8299 153.025 59.2341 153.025 57.6213C153.025 28.5594 129.509 5 100.5 5C73.0269 5 50.4802 26.131 48.17 53.0548M152.811 62.4056C151.834 73.2595 147.568 83.1629 141.019 91.1077M48.17 53.0548C23.947 55.3641 5 75.8029 5 100.675C5 123.819 21.4046 143.123 43.2 147.556M48.17 53.0548C49.6774 52.9111 51.2051 52.8376 52.75 52.8376C63.5016 52.8376 73.4233 56.3976 81.4047 62.4051" stroke="white" stroke-opacity="0.7" stroke-width="10" stroke-linecap="round" stroke-linejoin="round"/>
<path d="M100.5 176.9L100.5 100.5M100.5 176.9C93.8128 176.9 81.3191 157.854 76.625 153.025M100.5 176.9C107.187 176.9 119.681 157.854 124.375 153.025" stroke="white" stroke-opacity="0.7" stroke-width="10" stroke-linecap="round" stroke-linejoin="round"/>
</svg>
