<svg width="224" height="198" viewBox="0 0 224 198" fill="none" xmlns="http://www.w3.org/2000/svg">
<g opacity="0.8">
<g opacity="0.4" filter="url(#filter0_f_49_395)">
<path d="M42.0131 104.445C36.8072 90.3895 43.9807 74.7754 58.0358 69.5695L132.538 41.974C146.593 36.768 162.208 43.9416 167.413 57.9967L182.121 97.7054C186.364 109.159 180.518 121.884 169.064 126.127V126.127C166.189 127.191 170.546 140.177 167.79 141.197C164.924 142.259 154.948 131.355 152.183 132.379C130.94 140.247 112.28 147.159 89.8563 155.465C75.8013 160.671 60.1826 153.499 54.9767 139.444L42.0131 104.445Z" fill="url(#paint0_linear_49_395)"/>
<path d="M58.1918 69.9907L132.694 42.3952C146.517 37.2754 161.872 44.3303 166.992 58.1527L181.7 97.8615C185.857 109.083 180.129 121.549 168.908 125.705C168.374 125.903 168.058 126.364 167.873 126.889C167.689 127.413 167.61 128.065 167.59 128.774C167.551 130.195 167.744 131.984 167.936 133.728L167.946 133.819C168.136 135.551 168.321 137.235 168.298 138.554C168.287 139.226 168.221 139.768 168.092 140.16C167.962 140.552 167.796 140.716 167.634 140.776C167.425 140.853 167.081 140.841 166.559 140.658C166.051 140.479 165.447 140.163 164.768 139.742C163.41 138.899 161.827 137.683 160.223 136.447L160.125 136.371C158.564 135.168 156.987 133.952 155.624 133.094C154.929 132.656 154.271 132.299 153.684 132.086C153.113 131.877 152.527 131.773 152.027 131.958L151.903 132.004L151.778 132.05L151.654 132.096L151.53 132.142L151.405 132.188L151.281 132.234L151.157 132.28L151.033 132.326L150.909 132.372L150.785 132.418L150.661 132.464L150.538 132.51L150.414 132.555L150.29 132.601L150.167 132.647L150.043 132.693L149.919 132.739L149.796 132.784L149.672 132.83L149.549 132.876L149.426 132.921L149.303 132.967L149.179 133.013L149.056 133.058L148.933 133.104L148.81 133.149L148.687 133.195L148.564 133.241L148.441 133.286L148.318 133.332L148.195 133.377L148.073 133.423L147.95 133.468L147.827 133.513L147.705 133.559L147.582 133.604L147.46 133.65L147.337 133.695L147.215 133.74L147.093 133.786L146.97 133.831L146.848 133.876L146.726 133.921L146.604 133.967L146.481 134.012L146.359 134.057L146.237 134.102L146.115 134.148L145.993 134.193L145.872 134.238L145.75 134.283L145.628 134.328L145.506 134.373L145.384 134.418L145.263 134.463L145.141 134.508L145.02 134.553L144.898 134.598L144.776 134.643L144.655 134.688L144.534 134.733L144.412 134.778L144.291 134.823L144.17 134.868L144.048 134.913L143.927 134.958L143.806 135.003L143.685 135.048L143.564 135.093L143.443 135.137L143.322 135.182L143.201 135.227L143.08 135.272L142.959 135.317L142.838 135.361L142.717 135.406L142.597 135.451L142.476 135.496L142.355 135.54L142.234 135.585L142.114 135.63L141.993 135.674L141.873 135.719L141.752 135.764L141.632 135.808L141.511 135.853L141.391 135.898L141.27 135.942L141.15 135.987L141.03 136.031L140.909 136.076L140.789 136.12L140.669 136.165L140.549 136.209L140.429 136.254L140.308 136.298L140.188 136.343L140.068 136.387L139.948 136.432L139.828 136.476L139.708 136.521L139.588 136.565L139.469 136.61L139.349 136.654L139.229 136.698L139.109 136.743L138.989 136.787L138.869 136.831L138.75 136.876L138.63 136.92L138.51 136.964L138.391 137.009L138.271 137.053L138.152 137.097L138.032 137.142L137.912 137.186L137.793 137.23L137.673 137.274L137.554 137.319L137.435 137.363L137.315 137.407L137.196 137.451L137.076 137.496L136.957 137.54L136.838 137.584L136.718 137.628L136.599 137.672L136.48 137.716L136.361 137.761L136.242 137.805L136.122 137.849L136.003 137.893L135.884 137.937L135.765 137.981L135.646 138.025L135.527 138.069L135.408 138.114L135.289 138.158L135.17 138.202L135.051 138.246L134.932 138.29L134.813 138.334L134.694 138.378L134.575 138.422L134.456 138.466L134.337 138.51L134.218 138.554L134.1 138.598L133.981 138.642L133.862 138.686L133.743 138.73L133.624 138.774L133.506 138.818L133.387 138.862L133.268 138.906L133.15 138.95L133.031 138.994L132.912 139.038L132.793 139.082L132.675 139.126L132.556 139.17L132.438 139.214L132.319 139.258L132.2 139.302L132.082 139.346L131.963 139.389L131.845 139.433L131.726 139.477L131.608 139.521L131.489 139.565L131.371 139.609L131.252 139.653L131.134 139.697L131.015 139.741L130.897 139.785L130.778 139.828L130.66 139.872L130.541 139.916L130.423 139.96L130.304 140.004L130.186 140.048L130.068 140.092L129.949 140.135L129.831 140.179L129.712 140.223L129.594 140.267L129.476 140.311L129.357 140.355L129.239 140.399L129.12 140.442L129.002 140.486L128.884 140.53L128.765 140.574L128.647 140.618L128.529 140.662L128.41 140.705L128.292 140.749L128.174 140.793L128.055 140.837L127.937 140.881L127.819 140.925L127.7 140.968L127.582 141.012L127.464 141.056L127.346 141.1L127.227 141.144L127.109 141.187L126.991 141.231L126.872 141.275L126.754 141.319L126.636 141.363L126.517 141.407L126.399 141.45L126.281 141.494L126.162 141.538L126.044 141.582L125.926 141.626L125.807 141.67L125.689 141.713L125.571 141.757L125.452 141.801L125.334 141.845L125.216 141.889L125.097 141.933L124.979 141.976L124.861 142.02L124.742 142.064L124.624 142.108L124.506 142.152L124.387 142.196L124.269 142.239L124.15 142.283L124.032 142.327L123.914 142.371L123.795 142.415L123.677 142.459L123.558 142.503L123.44 142.546L123.322 142.59L123.203 142.634L123.085 142.678L122.966 142.722L122.848 142.766L122.729 142.81L122.611 142.854L122.492 142.897L122.374 142.941L122.255 142.985L122.137 143.029L122.018 143.073L121.9 143.117L121.781 143.161L121.662 143.205L121.544 143.249L121.425 143.293L121.307 143.337L121.188 143.381L121.069 143.425L120.951 143.468L120.832 143.512L120.713 143.556L120.595 143.6L120.476 143.644L120.357 143.688L120.238 143.732L120.12 143.776L120.001 143.82L119.882 143.864L119.763 143.908L119.644 143.952L119.525 143.996L119.407 144.04L119.288 144.084L119.169 144.128L119.05 144.173L118.931 144.217L118.812 144.261L118.693 144.305L118.574 144.349L118.455 144.393L118.336 144.437L118.217 144.481L118.098 144.525L117.979 144.569L117.859 144.613L117.74 144.658L117.621 144.702L117.502 144.746L117.383 144.79L117.263 144.834L117.144 144.878L117.025 144.923L116.906 144.967L116.786 145.011L116.667 145.055L116.547 145.099L116.428 145.144L116.309 145.188L116.189 145.232L116.07 145.276L115.95 145.321L115.831 145.365L115.711 145.409L115.591 145.454L115.472 145.498L115.352 145.542L115.232 145.586L115.113 145.631L114.993 145.675L114.873 145.72L114.753 145.764L114.634 145.808L114.514 145.853L114.394 145.897L114.274 145.941L114.154 145.986L114.034 146.03L113.914 146.075L113.794 146.119L113.674 146.164L113.554 146.208L113.434 146.253L113.314 146.297L113.193 146.342L113.073 146.386L112.953 146.431L112.833 146.475L112.712 146.52L112.592 146.564L112.472 146.609L112.351 146.654L112.231 146.698L112.11 146.743L111.99 146.788L111.869 146.832L111.748 146.877L111.628 146.922L111.507 146.966L111.386 147.011L111.266 147.056L111.145 147.1L111.024 147.145L110.903 147.19L110.782 147.235L110.661 147.28L110.54 147.324L110.419 147.369L110.298 147.414L110.177 147.459L110.056 147.504L109.935 147.549L109.814 147.594L109.692 147.638L109.571 147.683L109.45 147.728L109.328 147.773L109.207 147.818L109.086 147.863L108.964 147.908L108.842 147.953L108.721 147.998L108.599 148.043L108.478 148.088L108.356 148.134L108.234 148.179L108.112 148.224L107.99 148.269L107.868 148.314L107.747 148.359L107.625 148.404L107.502 148.45L107.38 148.495L107.258 148.54L107.136 148.585L107.014 148.631L106.892 148.676L106.769 148.721L106.647 148.767L106.524 148.812L106.402 148.857L106.28 148.903L106.157 148.948L106.034 148.993L105.912 149.039L105.789 149.084L105.666 149.13L105.543 149.175L105.421 149.221L105.298 149.266L105.175 149.312L105.052 149.357L104.929 149.403L104.805 149.449L104.682 149.494L104.559 149.54L104.436 149.586L104.312 149.631L104.189 149.677L104.066 149.723L103.942 149.768L103.819 149.814L103.695 149.86L103.571 149.906L103.448 149.952L103.324 149.997L103.2 150.043L103.076 150.089L102.952 150.135L102.828 150.181L102.704 150.227L102.58 150.273L102.456 150.319L102.332 150.365L102.207 150.411L102.083 150.457L101.959 150.503L101.834 150.549L101.71 150.595L101.585 150.641L101.46 150.688L101.336 150.734L101.211 150.78L101.086 150.826L100.961 150.872L100.836 150.919L100.711 150.965L100.586 151.011L100.461 151.058L100.336 151.104L100.211 151.15L100.085 151.197L99.96 151.243L99.8346 151.29L99.7091 151.336L99.5835 151.383L99.4579 151.429L99.3322 151.476L99.2064 151.522L99.0806 151.569L98.9547 151.616L98.8288 151.662L98.7028 151.709L98.5767 151.756L98.4505 151.802L98.3243 151.849L98.198 151.896L98.0716 151.943L97.9452 151.99L97.8187 152.036L97.6922 152.083L97.5655 152.13L97.4388 152.177L97.3121 152.224L97.1852 152.271L97.0583 152.318L96.9314 152.365L96.8043 152.412L96.6772 152.459L96.55 152.506L96.4227 152.554L96.2954 152.601L96.168 152.648L96.0405 152.695L95.913 152.742L95.7854 152.79L95.6577 152.837L95.5299 152.884L95.4021 152.932L95.2742 152.979L95.1462 153.026L95.0181 153.074L94.89 153.121L94.7618 153.169L94.6335 153.216L94.5051 153.264L94.3767 153.311L94.2482 153.359L94.1196 153.407L93.9909 153.454L93.8622 153.502L93.7334 153.55L93.6045 153.597L93.4755 153.645L93.3465 153.693L93.2173 153.741L93.0881 153.789L92.9588 153.837L92.8295 153.884L92.7 153.932L92.5705 153.98L92.4409 154.028L92.3112 154.076L92.1814 154.124L92.0516 154.173L91.9217 154.221L91.7917 154.269L91.6616 154.317L91.5314 154.365L91.4011 154.413L91.2708 154.462L91.1404 154.51L91.0099 154.558L90.8793 154.607L90.7486 154.655L90.6179 154.704L90.487 154.752L90.3561 154.801L90.2251 154.849L90.094 154.898L89.9628 154.946L89.8316 154.995L89.7002 155.044C75.8778 160.163 60.5176 153.11 55.3979 139.288L42.4343 104.288C37.3146 90.4661 44.3694 75.1105 58.1918 69.9907Z" stroke="#979797" stroke-width="0.898396"/>
</g>
<path d="M29.4922 95.2451C23.6975 79.6005 31.6824 62.2206 47.327 56.4259L125.442 27.4922C141.087 21.6975 158.467 29.6824 164.262 45.327L180.84 90.0865C185.4 102.396 179.117 116.071 166.807 120.631V120.631C163.717 121.775 168.57 136.188 165.608 137.285C162.527 138.426 151.637 126.25 148.665 127.351C126.144 135.692 106.325 143.033 82.6583 151.799C67.0138 157.594 49.6291 149.611 43.8344 133.966L29.4922 95.2451Z" fill="url(#paint1_linear_49_395)"/>
</g>
<defs>
<filter id="filter0_f_49_395" x="0.316406" y="0.276978" width="223.188" height="196.885" filterUnits="userSpaceOnUse" color-interpolation-filters="sRGB">
<feFlood flood-opacity="0" result="BackgroundImageFix"/>
<feBlend mode="normal" in="SourceGraphic" in2="BackgroundImageFix" result="shape"/>
<feGaussianBlur stdDeviation="20" result="effect1_foregroundBlur_49_395"/>
</filter>
<linearGradient id="paint0_linear_49_395" x1="29.5817" y1="70.8823" x2="166.984" y2="215.765" gradientUnits="userSpaceOnUse">
<stop stop-color="#A1E3F9"/>
<stop offset="1" stop-color="#A1E3F9"/>
</linearGradient>
<linearGradient id="paint1_linear_49_395" x1="37.7377" y1="48.9136" x2="173.778" y2="140.719" gradientUnits="userSpaceOnUse">
<stop offset="0.283719" stop-color="#A1E3F9"/>
<stop offset="1" stop-color="#A1E3F9"/>
</linearGradient>
</defs>
</svg>
